<?xml version="1.0" standalone="no"?>
<!DOCTYPE svg PUBLIC "-//W3C//DTD SVG 20010904//EN"
 "http://www.w3.org/TR/2001/REC-SVG-20010904/DTD/svg10.dtd">
<svg version="1.0" xmlns="http://www.w3.org/2000/svg"
 width="460.000000pt" height="460.000000pt" viewBox="0 0 460.000000 460.000000"
 preserveAspectRatio="xMidYMid meet">
<metadata>
Created by potrace 1.11, written by Peter Selinger 2001-2013
</metadata>
<g transform="translate(0.000000,460.000000) scale(0.100000,-0.100000)"
fill="#000000" stroke="none">
<path d="M1170 4304 c-30 -8 -59 -19 -64 -24 -6 -6 -20 -10 -33 -10 -13 0 -23
-4 -23 -9 0 -5 -8 -11 -17 -15 -27 -9 -53 -27 -106 -76 -51 -46 -127 -142
-127 -159 0 -5 -3 -11 -7 -13 -5 -1 -21 -30 -38 -63 -24 -49 -35 -61 -57 -63
-16 -2 -40 -18 -57 -38 -17 -19 -34 -34 -38 -34 -4 0 -30 -11 -58 -24 -27 -14
-104 -46 -170 -71 -66 -26 -133 -53 -150 -60 -16 -7 -52 -21 -78 -31 -88 -34
-134 -116 -89 -157 21 -19 48 -22 57 -7 3 6 16 10 28 10 12 0 33 6 47 13 14 7
45 19 70 27 25 7 50 17 55 21 6 4 27 10 48 14 20 4 40 11 43 16 3 5 13 9 22 9
9 0 30 7 46 15 15 8 35 15 42 15 8 0 22 4 32 9 62 32 174 64 198 58 16 -4 15
-5 -3 -6 -13 0 -23 -5 -23 -11 0 -5 -8 -10 -18 -10 -10 0 -22 -4 -27 -9 -6 -4
-31 -14 -58 -21 -26 -7 -50 -17 -53 -21 -3 -5 -14 -9 -25 -9 -10 0 -19 -4 -19
-10 0 -5 -9 -10 -20 -10 -11 0 -20 -4 -20 -10 0 -5 -5 -10 -11 -10 -13 0 -46
-14 -187 -82 l-103 -49 3 -37 3 -37 60 1 c71 2 125 13 125 25 0 5 7 9 15 9 8
0 29 6 47 14 18 8 74 26 123 41 50 15 99 31 110 35 28 11 156 40 178 40 14 0
16 -5 11 -27 -8 -32 -34 -74 -34 -55 0 22 -36 12 -51 -14 -12 -24 -12 -28 10
-45 13 -10 32 -19 42 -19 26 0 58 35 66 70 3 17 9 30 14 30 8 0 24 40 21 53
-1 4 7 7 18 7 25 0 64 -42 80 -85 7 -16 16 -38 21 -47 5 -10 9 -33 9 -51 0
-18 4 -37 9 -42 9 -11 -5 -158 -19 -190 -24 -54 -59 -166 -65 -208 -4 -26 -11
-50 -16 -53 -5 -3 -9 -27 -9 -54 0 -27 -4 -52 -10 -55 -5 -3 -10 -16 -10 -29
0 -12 -4 -26 -8 -32 -5 -5 -17 -44 -27 -86 -10 -42 -21 -77 -24 -76 -36 4 -38
0 -82 -167 -6 -22 -15 -48 -20 -57 -5 -10 -9 -27 -9 -38 0 -12 -7 -49 -15 -83
-8 -34 -21 -92 -30 -128 -23 -98 -21 -359 5 -486 20 -104 37 -162 51 -177 5
-6 9 -18 9 -28 0 -10 5 -18 10 -18 6 0 10 -7 10 -16 0 -18 31 -77 43 -82 4 -2
7 -8 7 -13 0 -17 94 -139 107 -139 7 0 13 -6 13 -13 0 -25 190 -187 220 -187
5 0 10 -4 10 -8 0 -11 201 -111 239 -118 17 -4 31 -10 31 -15 0 -5 11 -9 25
-9 14 0 25 -4 25 -10 0 -5 11 -10 24 -10 14 0 27 -4 31 -9 3 -6 26 -13 50 -17
25 -3 48 -10 50 -15 3 -4 37 -11 75 -15 39 -4 73 -11 76 -15 3 -5 30 -9 60 -9
30 0 54 -4 54 -9 0 -21 396 -39 441 -21 19 8 33 9 42 3 17 -14 137 -16 137 -3
0 5 6 10 13 10 8 0 21 8 31 19 13 14 38 20 114 25 53 4 101 11 106 16 6 6 20
10 33 10 12 0 44 7 70 16 38 13 48 14 52 3 2 -7 21 -31 42 -54 43 -46 46 -55
24 -55 -8 0 -15 -4 -15 -10 0 -5 -9 -10 -20 -10 -11 0 -20 -4 -20 -8 0 -9 -70
-42 -88 -42 -7 0 -12 -4 -12 -8 0 -10 -75 -28 -230 -53 -69 -11 -139 -25 -156
-30 -17 -5 -45 -9 -62 -9 -18 0 -32 -4 -32 -10 0 -5 -7 -10 -16 -10 -20 0 -74
-38 -74 -52 0 -6 -13 -24 -30 -40 -42 -40 -37 -82 7 -60 59 31 150 52 219 52
44 0 44 0 44 -36 l0 -36 43 7 c23 4 46 11 51 16 14 13 120 11 134 -3 9 -9 19
-3 43 25 58 68 109 99 342 212 31 15 57 31 57 35 0 4 25 35 56 70 59 67 66 95
21 95 -34 -1 -36 24 -5 67 20 29 21 31 3 44 -13 9 -23 10 -37 3 -10 -5 -23 -7
-29 -3 -6 4 22 20 62 36 41 17 93 39 116 49 24 10 45 19 49 19 3 0 33 13 67
28 34 16 77 35 95 43 17 8 32 17 32 21 0 5 9 8 19 8 16 0 258 118 286 140 6 4
35 21 67 38 l56 32 30 -28 c16 -15 41 -37 56 -49 14 -13 26 -29 26 -37 0 -16
31 -27 80 -30 31 -1 35 2 38 24 4 37 -72 108 -99 92 -14 -9 -23 -6 -48 20 -17
18 -30 37 -28 43 2 5 30 28 63 50 110 74 234 221 279 331 12 30 25 57 29 61 3
3 6 17 6 30 0 12 4 23 9 23 22 0 39 234 21 284 -74 192 -221 394 -380 518 -62
48 -223 148 -239 148 -7 0 -25 8 -39 19 -15 10 -70 33 -122 50 -52 18 -103 36
-112 42 -10 5 -27 9 -38 9 -11 0 -28 4 -38 10 -24 13 -154 40 -194 40 -19 0
-38 4 -44 9 -5 5 -36 11 -69 14 -33 3 -116 10 -185 17 -159 14 -330 1 -392
-31 -10 -5 -27 -9 -38 -9 -11 0 -39 -7 -62 -16 -65 -23 -248 -116 -248 -126 0
-4 -6 -8 -14 -8 -8 0 -16 -4 -18 -8 -1 -5 -25 -23 -52 -41 -27 -19 -124 -109
-216 -201 -93 -93 -178 -171 -189 -175 -12 -3 -21 -11 -21 -16 0 -5 -11 -9
-25 -9 -14 0 -25 -4 -25 -10 0 -5 -21 -10 -46 -10 -39 0 -52 5 -75 30 -16 16
-31 42 -35 57 -4 15 -12 31 -18 35 -8 5 -7 13 2 28 6 11 12 41 12 67 0 38 -4
51 -21 61 -16 10 -18 17 -10 25 6 6 11 27 11 47 0 20 4 40 9 46 5 5 11 29 14
54 3 25 13 79 22 120 8 41 20 113 26 160 6 47 15 93 20 102 5 10 9 29 9 43 0
22 4 25 33 25 31 0 33 2 44 53 7 28 15 84 19 122 3 39 10 75 14 80 8 11 13 32
31 135 6 36 15 73 20 82 13 25 12 278 -1 278 -5 0 -10 11 -10 25 0 25 -28 106
-40 115 -4 3 -17 23 -28 45 -26 51 -140 166 -189 191 -21 10 -40 21 -43 24 -9
9 -55 29 -103 44 -61 20 -213 20 -287 0z m314 -260 c7 -6 27 -15 45 -19 20 -4
35 -15 38 -26 3 -12 14 -19 28 -19 16 0 26 -8 30 -22 4 -13 20 -35 37 -49 24
-20 30 -33 30 -64 0 -22 -5 -41 -11 -43 -13 -4 -15 -52 -2 -52 5 0 11 -10 14
-22 4 -23 4 -23 15 2 10 22 11 18 9 -30 -2 -50 -4 -55 -24 -53 -19 2 -22 -4
-28 -58 -4 -33 -4 -63 -1 -66 3 -4 6 3 6 15 0 11 5 24 10 27 6 3 10 17 10 31
0 14 4 22 10 19 21 -13 3 -106 -27 -141 -28 -32 -54 -85 -46 -96 4 -8 -5 -9
-27 -5 -18 4 -52 7 -76 7 -42 0 -44 1 -38 24 3 15 -1 29 -11 40 -13 13 -14 20
-6 30 9 11 8 18 -5 30 -12 12 -13 20 -5 30 8 10 7 16 -4 26 -8 7 -15 19 -15
26 0 8 -4 14 -10 14 -13 0 -38 52 -33 68 6 16 -19 72 -29 66 -12 -8 -10 20 3
33 8 8 7 17 -3 32 -13 21 -48 29 -48 11 0 -5 -8 -10 -17 -10 -23 1 -70 36 -60
46 4 4 13 2 19 -4 19 -19 30 -14 26 10 -3 26 -36 37 -49 16 -5 -7 -6 18 -2 57
6 70 15 88 40 78 7 -3 25 2 39 12 17 11 35 14 54 10 23 -5 32 -2 42 14 7 12
21 21 30 21 10 0 19 8 19 18 1 14 2 14 6 -2 3 -11 11 -25 17 -32z m-714 -201
c-34 -114 -36 -118 -53 -115 -9 2 -17 -3 -17 -11 0 -19 -35 -28 -50 -13 -8 8
-14 6 -21 -7 -8 -14 -14 -15 -24 -7 -9 8 -15 8 -20 0 -3 -5 -19 -10 -36 -10
-20 0 -29 -5 -29 -16 0 -12 -6 -15 -24 -10 -15 4 -28 0 -36 -9 -15 -18 -61
-20 -78 -3 -9 9 -3 15 26 26 20 7 47 16 60 19 12 3 22 9 22 14 0 5 8 9 19 9
34 0 95 32 139 72 34 31 49 38 68 34 15 -4 24 -2 24 6 0 10 28 48 36 48 1 0
-1 -12 -6 -27z m360 -46 c0 -5 -4 -5 -10 -2 -5 3 -10 14 -10 23 0 15 2 15 10
2 5 -8 10 -19 10 -23z m-200 -87 c-12 -12 -26 -18 -32 -14 -7 4 -2 12 13 20
35 19 42 17 19 -6z m-35 -51 c6 -27 10 -30 38 -27 26 2 33 8 38 33 l7 30 1
-33 c1 -26 -4 -34 -25 -42 -15 -6 -41 -8 -59 -4 -25 4 -35 2 -42 -11 -7 -11
-23 -16 -54 -17 -28 0 -51 -7 -64 -18 -11 -10 -36 -21 -55 -25 -54 -11 -108
-38 -119 -60 -8 -17 -10 -18 -10 -2 -1 11 -9 17 -23 18 -14 0 1 9 35 21 31 11
57 24 57 29 0 5 9 9 20 9 11 0 20 4 20 9 0 5 18 12 40 16 22 4 42 11 46 16 3
5 14 9 25 9 10 0 19 5 19 10 0 6 10 10 22 10 25 0 58 27 58 47 0 25 18 13 25
-18z m390 -76 c9 -21 21 -46 26 -55 5 -10 9 -31 9 -48 0 -17 4 -38 9 -48 31
-57 51 -116 46 -132 -9 -27 -35 -34 -35 -9 0 20 -7 31 -47 75 -13 14 -23 30
-23 36 0 5 -7 8 -15 4 -10 -3 -20 5 -30 25 -9 16 -28 35 -43 41 -21 9 -23 12
-10 15 9 2 30 -3 47 -11 49 -26 54 -22 46 37 -4 28 -11 54 -16 55 -5 2 -9 10
-9 18 0 17 -17 19 -22 2 -3 -7 -13 -5 -31 7 -29 19 -35 35 -14 35 7 0 26 14
42 30 l29 31 13 -35 c6 -19 19 -52 28 -73z m-920 47 c-3 -5 -12 -7 -20 -3 -9
3 -15 -1 -15 -11 0 -12 -10 -16 -41 -16 -38 0 -41 -2 -37 -24 4 -18 0 -26 -14
-29 -13 -4 -18 0 -18 14 0 25 -17 24 -25 -2 -4 -11 -12 -18 -18 -16 -23 7 -17
25 13 38 16 8 30 17 30 21 0 5 11 8 25 8 14 0 25 4 25 9 0 9 29 16 78 20 13 0
21 -3 17 -9z m750 -76 c-23 -17 -32 -10 -15 11 7 8 17 12 23 8 6 -4 3 -11 -8
-19z m35 -39 c0 -8 -2 -15 -4 -15 -2 0 -6 7 -10 15 -3 8 -1 15 4 15 6 0 10 -7
10 -15z m-48 -206 c-9 -29 -10 -31 -11 -9 -1 14 -4 36 -7 50 -6 23 -5 24 10 9
14 -13 16 -22 8 -50z m488 5 c0 -2 -9 -20 -21 -41 -14 -25 -19 -47 -16 -70 6
-35 -9 -56 -19 -26 -3 10 -10 27 -14 38 -5 11 -11 31 -13 45 -3 14 -8 34 -12
45 -6 18 -2 20 44 17 28 -2 51 -6 51 -8z m107 -46 c-3 -8 -6 -5 -6 6 -1 11 2
17 5 13 3 -3 4 -12 1 -19z m-10 -115 c-3 -10 -5 -2 -5 17 0 19 2 27 5 18 2
-10 2 -26 0 -35z m-303 -15 c9 -12 16 -36 16 -54 0 -17 3 -34 8 -38 11 -11 28
-227 21 -262 -4 -16 -7 -68 -8 -116 0 -48 -5 -90 -11 -93 -5 -3 -10 -30 -10
-60 0 -30 -4 -57 -10 -60 -5 -3 -10 -21 -10 -39 0 -19 -7 -39 -15 -46 -8 -7
-15 -27 -15 -44 -1 -45 -28 -150 -40 -154 -5 -2 -10 -16 -10 -30 0 -15 -7 -54
-16 -87 -21 -86 -27 -183 -13 -235 15 -59 32 -100 41 -100 5 0 8 -5 8 -12 0
-6 18 -29 40 -49 58 -54 53 -98 -6 -45 -14 13 -34 30 -43 38 -9 8 -23 24 -31
36 -8 12 -20 22 -27 22 -7 0 -13 11 -13 24 0 13 -5 26 -11 28 -6 2 -13 46 -16
105 -5 80 -2 110 11 142 9 23 16 68 16 101 0 33 4 60 10 60 6 0 10 11 10 25 0
14 4 33 9 43 12 23 25 69 51 182 13 52 27 103 31 112 5 10 9 39 9 66 0 26 5
53 10 58 10 10 22 146 23 264 0 72 -30 221 -47 232 -7 5 -5 8 6 8 9 0 24 -10
32 -22z m306 -34 c0 -8 -4 -12 -10 -9 -5 3 -10 10 -10 16 0 5 5 9 10 9 6 0 10
-7 10 -16z m1320 -438 c0 -42 -9 -45 -95 -40 -77 4 -96 14 -71 39 9 9 16 21
16 26 0 5 34 9 75 9 l75 0 0 -34z m457 -6 c7 0 13 9 13 20 0 14 7 20 24 20 26
0 36 -16 36 -57 0 -21 -3 -24 -22 -19 -13 3 -53 6 -90 6 -54 0 -68 3 -68 15 0
8 5 15 10 15 6 0 10 -4 10 -10 0 -5 11 -10 24 -10 26 0 38 20 30 48 -2 9 1 7
7 -5 7 -13 18 -23 26 -23z m-361 -28 c-12 -11 -18 7 -10 30 l8 23 4 -23 c2
-13 1 -26 -2 -30z m134 18 c0 -5 -2 -10 -4 -10 -3 0 -8 5 -11 10 -3 6 -1 10 4
10 6 0 11 -4 11 -10z m-1673 -162 c-2 -13 -4 -5 -4 17 -1 22 1 32 4 23 2 -10
2 -28 0 -40z m1666 11 c14 -6 30 -22 36 -36 14 -30 14 -44 0 -20 -5 9 -18 17
-27 17 -9 0 -22 11 -29 25 -13 29 -12 29 20 14z m327 -113 c0 -19 0 -19 -14
-1 -8 11 -11 25 -8 33 4 11 6 11 13 0 5 -7 9 -22 9 -32z m-740 14 c0 -5 -2
-10 -4 -10 -3 0 -8 5 -11 10 -3 6 -1 10 4 10 6 0 11 -4 11 -10z m203 -25 c22
-46 23 -72 2 -55 -8 7 -15 18 -15 24 0 6 -9 17 -20 24 -25 15 -26 42 -2 42 11
0 25 -14 35 -35z m618 12 c-10 -9 -11 -8 -5 6 3 10 9 15 12 12 3 -3 0 -11 -7
-18z m-513 -27 c7 0 12 -12 12 -26 l0 -27 -30 31 c-33 35 -42 66 -12 39 10
-10 24 -17 30 -17z m379 -57 c-2 -16 -4 -5 -4 22 0 28 2 40 4 28 2 -13 2 -35
0 -50z m-1433 -70 c6 -20 4 -23 -17 -23 -14 0 -41 -7 -60 -15 -20 -8 -47 -15
-59 -15 -19 0 -12 10 42 59 71 65 72 65 94 -6z m833 25 c13 -1 25 -48 12 -48
-5 0 -9 5 -9 10 0 6 -5 10 -10 10 -6 0 -21 10 -33 21 l-22 22 25 -7 c14 -4 30
-8 37 -8z m-1317 -56 c0 -5 9 -19 20 -32 28 -32 25 -40 -15 -40 -30 0 -35 3
-35 24 0 13 3 31 6 40 6 17 24 22 24 8z m-793 -39 c-3 -10 -5 -4 -5 12 0 17 2
24 5 18 2 -7 2 -21 0 -30z m642 -28 c0 -18 -1 -17 -13 4 -8 14 -11 32 -8 40 4
12 7 11 13 -5 4 -10 8 -28 8 -39z m3021 -54 c0 -6 5 -11 10 -11 6 0 10 -10 9
-22 0 -15 -3 -18 -6 -8 -4 8 -19 28 -34 44 -15 16 -25 35 -22 43 4 9 10 6 24
-11 10 -13 19 -29 19 -35z m-2336 24 c17 -26 44 -32 74 -16 9 4 52 11 95 15
76 7 77 6 77 -16 0 -24 -52 -58 -58 -38 -6 16 -54 12 -74 -7 -10 -9 -18 -27
-18 -40 0 -13 -6 -23 -14 -23 -8 0 -16 -3 -18 -7 -1 -5 -66 -39 -143 -77 -77
-38 -152 -77 -167 -88 -20 -13 -32 -16 -45 -9 -41 21 -103 33 -149 28 -57 -6
-107 -17 -114 -26 -7 -9 -42 -30 -67 -40 -11 -6 -34 -26 -49 -45 -26 -33 -29
-34 -44 -18 -39 44 -50 72 -50 134 l0 63 51 1 c44 1 54 5 84 39 19 21 35 44
35 51 0 8 5 14 10 14 6 0 10 -4 10 -9 0 -6 -4 -13 -10 -16 -18 -11 -11 -35 10
-35 11 0 20 -6 20 -14 0 -7 -9 -16 -20 -19 -23 -6 -26 -29 -7 -45 9 -8 24 -8
51 -1 29 8 37 15 36 32 -4 39 0 46 23 49 18 2 23 10 25 41 2 28 -1 39 -15 44
-12 5 1 11 42 19 33 6 87 19 120 29 93 27 135 36 200 44 33 5 65 9 71 9 7 1
19 -9 28 -23z m480 -16 c-3 -5 -12 -9 -20 -9 -8 0 -14 -4 -14 -10 0 -5 -4 -10
-10 -10 -10 0 -14 33 -5 42 9 9 55 -4 49 -13z m1731 5 c41 -15 84 -55 114
-108 27 -46 31 -63 31 -124 0 -39 -4 -74 -10 -77 -5 -3 -10 -19 -10 -34 0 -40
-11 -45 -31 -14 -15 23 -16 30 -5 43 24 28 33 73 22 110 -14 45 -91 123 -139
141 -20 7 -37 17 -37 21 0 4 -9 8 -20 8 -11 0 -20 5 -20 10 0 6 -11 10 -24 10
-13 0 -37 7 -52 16 -28 15 -24 15 66 10 52 -2 104 -8 115 -12z m-1585 -54 c0
-54 -2 -60 -20 -60 -12 0 -35 7 -52 16 -20 10 -42 14 -64 9 -43 -8 -44 6 -1
24 17 8 52 27 77 43 25 15 48 28 53 28 4 0 7 -27 7 -60z m405 50 c-3 -5 -14
-10 -25 -10 -10 0 -35 -8 -57 -19 -21 -10 -62 -29 -92 -42 -72 -32 -156 -115
-187 -184 -25 -57 -32 -129 -14 -140 6 -3 10 -15 10 -26 0 -36 52 -112 126
-184 70 -68 78 -83 75 -142 -1 -24 -34 -33 -46 -13 -3 6 -35 10 -71 10 l-64 0
0 44 c0 61 -15 96 -40 96 -19 0 -20 6 -20 168 0 184 -4 199 -55 204 -22 2 -30
8 -30 23 0 15 8 21 33 23 18 2 40 -2 48 -8 40 -34 89 24 65 76 -6 14 -11 49
-11 79 l0 55 181 0 c117 0 178 -3 174 -10z m-1735 -26 c0 -14 -5 -24 -11 -22
-6 2 -10 7 -10 11 1 4 1 14 1 22 0 8 5 15 10 15 6 0 10 -12 10 -26z m2587 20
c-3 -3 -12 -4 -19 -1 -8 3 -5 6 6 6 11 1 17 -2 13 -5z m-734 -21 c-7 -2 -21
-2 -30 0 -10 3 -4 5 12 5 17 0 24 -2 18 -5z m-88 -23 c-11 -5 -31 -8 -45 -8
-23 0 -22 1 5 8 42 11 65 11 40 0z m503 -7 c-26 -2 -71 -2 -100 0 -29 2 -8 3
47 3 55 0 79 -1 53 -3z m-245 -20 c-13 -2 -33 -2 -45 0 -13 2 -3 4 22 4 25 0
35 -2 23 -4z m-2696 -80 c-3 -10 -5 -4 -5 12 0 17 2 24 5 18 2 -7 2 -21 0 -30z
m2466 30 c-7 -2 -19 -2 -25 0 -7 3 -2 5 12 5 14 0 19 -2 13 -5z m970 -13 c26
-8 47 -18 47 -22 0 -4 9 -8 20 -8 11 0 20 -4 20 -9 0 -5 9 -11 21 -14 12 -3
18 -10 15 -15 -3 -6 -16 -7 -29 -3 -24 7 -132 63 -157 81 -18 13 -13 12 63
-10z m158 -7 c13 -16 12 -17 -3 -4 -17 13 -22 21 -14 21 2 0 10 -8 17 -17z
m-1381 -3 c-8 -5 -19 -10 -25 -10 -5 0 -3 5 5 10 8 5 20 10 25 10 6 0 3 -5 -5
-10z m-710 -23 c0 -20 -22 -35 -159 -105 -88 -45 -164 -82 -170 -82 -6 0 -11
8 -11 18 0 11 16 24 48 36 26 11 49 22 52 25 5 6 147 82 197 105 13 6 23 14
23 19 0 4 5 7 10 7 6 0 10 -11 10 -23z m1204 8 c-10 -8 -23 -15 -27 -15 -5 0
-25 -7 -45 -16 -66 -29 -76 -32 -138 -44 -59 -12 -115 -6 -98 10 5 4 36 15 69
25 33 9 68 21 77 26 10 5 33 9 52 9 19 0 38 5 41 10 3 6 25 10 48 10 38 0 39
-1 21 -15z m256 11 c0 -2 -9 -6 -20 -9 -11 -3 -20 -1 -20 4 0 5 9 9 20 9 11 0
20 -2 20 -4z m-1153 -28 c41 -15 43 -40 4 -55 -26 -9 -32 -8 -47 9 -13 13 -28
18 -53 16 -34 -3 -36 -5 -39 -43 -1 -22 -5 -51 -9 -65 -6 -22 -7 -21 -12 15
-6 39 -7 40 -48 43 -28 2 -43 8 -43 17 0 24 80 55 126 48 30 -4 45 -1 55 10
17 20 24 20 66 5z m1807 -49 c-8 -16 -9 -12 -10 23 -1 37 0 40 9 21 6 -15 7
-31 1 -44z m-734 31 c0 -5 -5 -10 -11 -10 -5 0 -7 5 -4 10 3 6 8 10 11 10 2 0
4 -4 4 -10z m-2483 -57 c-3 -10 -5 -2 -5 17 0 19 2 27 5 18 2 -10 2 -26 0 -35z
m2692 33 c-2 -2 -22 -6 -44 -9 -27 -4 -35 -3 -25 3 14 9 79 15 69 6z m-999
-62 c-14 -31 -18 -59 -15 -87 5 -40 5 -41 -6 -12 -13 31 0 105 23 132 18 23
18 14 -2 -33z m705 16 c-16 -16 -34 -30 -39 -30 -13 0 45 59 58 59 6 1 -3 -12
-19 -29z m195 20 c-8 -5 -22 -10 -30 -10 -13 0 -13 1 0 10 8 5 22 10 30 10 13
0 13 -1 0 -10z m195 -10 c24 -11 46 -24 49 -29 5 -7 -89 34 -103 46 -12 9 15
1 54 -17z m362 4 c-3 -3 -12 -4 -19 -1 -8 3 -5 6 6 6 11 1 17 -2 13 -5z m-944
-21 c-7 -2 -19 -2 -25 0 -7 3 -2 5 12 5 14 0 19 -2 13 -5z m-737 -105 c-4 -51
-9 -114 -12 -141 -4 -30 -2 -53 6 -62 15 -18 5 -34 -18 -29 -14 4 -16 14 -14
50 2 24 0 50 -5 57 -5 6 -8 44 -7 82 6 134 7 135 32 135 24 0 24 0 18 -92z
m-346 47 c0 -19 -6 -44 -12 -55 -11 -17 -10 -22 1 -29 9 -6 10 -11 2 -15 -6
-4 -11 -23 -11 -42 0 -35 -5 -40 -29 -25 -9 6 -10 11 -2 15 7 5 11 42 11 97 0
82 1 89 20 89 16 0 20 -7 20 -35z m-100 -60 l0 -85 -48 0 c-27 0 -63 -7 -81
-16 -39 -20 -61 -12 -61 21 0 14 -4 25 -10 25 -23 0 -9 39 18 49 15 6 61 28
102 51 41 22 76 40 78 40 1 0 2 -38 2 -85z m744 51 c-3 -15 -8 -25 -11 -23 -2
3 -1 17 3 31 3 15 8 25 11 23 2 -3 1 -17 -3 -31z m564 20 c-10 -7 -18 -18 -18
-25 0 -6 -4 -11 -9 -11 -6 0 -46 -27 -89 -60 -44 -33 -85 -60 -91 -60 -6 0
-11 -4 -11 -9 0 -16 -104 -43 -150 -38 -42 3 -41 4 13 5 31 1 57 7 57 12 0 6
7 10 15 10 22 0 105 44 140 74 17 14 33 26 37 26 4 0 13 6 20 13 37 35 90 77
96 77 4 0 -1 -7 -10 -14z m-1664 -15 c16 -9 31 -22 34 -29 2 -6 -15 -28 -37
-49 -23 -20 -41 -41 -41 -45 0 -11 -42 -58 -52 -58 -4 0 -8 9 -8 19 0 11 -6
21 -12 24 -9 3 -6 12 10 29 12 13 22 31 22 39 0 8 7 24 15 35 8 10 15 27 15
37 0 21 16 21 54 -2z m1979 12 c-7 -2 -21 -2 -30 0 -10 3 -4 5 12 5 17 0 24
-2 18 -5z m87 -1 c0 -5 -13 -7 -30 -4 -16 2 -30 6 -30 8 0 2 14 4 30 4 17 0
30 -4 30 -8z m306 -28 c22 -8 64 -27 93 -42 51 -25 53 -27 27 -30 -15 -2 -35
2 -44 10 -19 14 -52 34 -94 56 -16 7 -28 15 -28 18 0 6 5 5 46 -12z m-1666
-124 l0 -130 -60 0 -60 0 0 113 0 112 44 -3 c37 -3 47 0 58 17 7 12 14 21 15
21 2 0 3 -58 3 -130z m1434 101 c-2 -3 -12 3 -22 13 -16 17 -16 18 5 5 12 -7
20 -15 17 -18z m64 -38 c19 -18 6 -16 -23 3 -14 9 -25 21 -25 26 0 10 19 -2
48 -29z m-200 10 c-10 -2 -26 -2 -35 0 -10 3 -2 5 17 5 19 0 27 -2 18 -5z
m564 -45 c-9 -9 -12 -4 -11 23 0 32 1 33 11 11 8 -17 8 -26 0 -34z m-1545 10
c-3 -8 -6 -5 -6 6 -1 11 2 17 5 13 3 -3 4 -12 1 -19z m633 -2 c0 -3 -4 -8 -10
-11 -5 -3 -10 -1 -10 4 0 6 5 11 10 11 6 0 10 -2 10 -4z m613 -23 c67 -58 127
-128 125 -147 -5 -31 -34 -44 -54 -24 -16 16 -16 17 6 11 22 -6 23 -4 17 26
-5 22 -28 52 -74 97 -68 64 -81 88 -20 37z m-129 -12 c-2 -3 -12 3 -22 13 -16
17 -16 18 5 5 12 -7 20 -15 17 -18z m-3207 -18 c-3 -10 -5 -4 -5 12 0 17 2 24
5 18 2 -7 2 -21 0 -30z m2630 -40 c-37 -36 -69 -64 -72 -61 -3 2 25 34 62 71
36 37 69 65 72 62 3 -3 -25 -36 -62 -72z m914 59 c-13 -2 -27 0 -32 5 -6 6 3
7 23 4 28 -4 29 -6 9 -9z m-761 -11 c-11 -21 -30 -37 -30 -25 0 8 30 44 37 44
2 0 -1 -9 -7 -19z m455 -1 c3 -5 1 -10 -4 -10 -6 0 -11 5 -11 10 0 6 2 10 4
10 3 0 8 -4 11 -10z m49 -46 c4 -11 2 -12 -14 -1 -11 6 -20 15 -20 19 0 12 28
-3 34 -18z m-569 -51 c-36 -80 -39 -85 -76 -193 -18 -52 -36 -96 -41 -98 -4
-2 -8 -9 -8 -15 0 -7 -9 -23 -20 -37 -16 -20 -20 -22 -20 -7 0 9 3 17 8 17 10
0 34 58 69 162 15 46 31 85 35 86 5 2 8 10 8 17 0 25 59 139 68 130 2 -2 -8
-29 -23 -62z m280 60 c-22 -3 -44 -9 -49 -14 -16 -15 -29 -10 -16 6 8 10 28
14 59 13 l46 -1 -40 -4z m-2467 -49 c50 -43 53 -55 10 -52 -27 3 -34 -1 -36
-19 -3 -21 -4 -21 -23 -5 -14 12 -19 29 -19 64 0 59 11 61 68 12z m959 15 c43
-21 63 -39 44 -39 -6 0 -11 -7 -11 -15 0 -8 -7 -15 -15 -15 -8 0 -15 -4 -15
-8 0 -5 -18 -20 -40 -34 -29 -19 -42 -23 -49 -15 -12 16 -16 38 -8 57 3 8 11
32 17 53 13 43 19 44 77 16z m1605 1 c12 -11 18 -20 14 -20 -4 0 -19 9 -33 20
-14 11 -20 20 -14 20 7 0 21 -9 33 -20z m-303 -59 c-16 -33 -29 -67 -29 -75 0
-9 -4 -16 -8 -16 -7 0 -42 -105 -42 -128 0 -7 -4 -12 -8 -12 -11 0 -32 -92
-32 -141 0 -24 -4 -38 -10 -34 -13 8 -13 90 0 113 5 9 19 48 30 85 11 38 27
85 36 105 49 108 77 162 84 162 5 0 -4 -27 -21 -59z m801 40 c0 -5 -16 -26
-35 -47 l-35 -39 0 48 0 47 35 0 c19 0 35 -4 35 -9z m-696 -22 c-9 -14 -24
-121 -31 -214 -2 -38 -9 -74 -14 -80 -5 -5 -9 -25 -9 -45 -1 -41 -29 -102 -50
-108 -9 -2 -11 0 -5 5 28 23 48 120 59 283 6 79 31 170 48 170 5 0 6 -5 2 -11z
m256 -4 c19 -23 8 -25 -14 -4 -11 11 -15 19 -9 19 6 0 16 -7 23 -15z m-142 -2
c-22 -3 -30 -12 -38 -41 -5 -20 -10 -44 -10 -53 0 -9 -7 -30 -16 -45 l-16 -29
6 49 c3 27 6 57 6 67 0 29 36 59 68 58 l27 -2 -27 -4z m-538 -8 c0 -3 -21 -31
-46 -63 -26 -31 -47 -58 -48 -59 0 -1 -2 17 -2 40 -1 23 -3 49 -5 57 -3 11 8
17 41 21 25 3 48 7 53 7 4 1 7 0 7 -3z m57 -23 c-10 -10 -17 -21 -17 -25 0 -3
-10 -17 -22 -30 -78 -81 -98 -121 -99 -197 0 -46 -3 -59 -9 -45 -14 33 -11 85
7 123 17 37 58 98 77 117 6 6 24 27 40 48 15 21 31 36 34 33 3 -3 -2 -14 -11
-24z m-1607 -20 c0 -21 -4 -42 -9 -47 -5 -6 -11 -31 -14 -58 -3 -37 -1 -49 12
-57 13 -7 9 -9 -15 -10 -39 0 -89 21 -129 54 -29 24 -29 25 -7 26 15 0 26 9
32 26 6 14 14 23 19 20 11 -7 51 27 51 43 0 7 4 9 10 6 5 -3 15 3 22 15 19 30
28 24 28 -18z m1344 22 c3 -8 2 -12 -4 -9 -6 3 -10 10 -10 16 0 14 7 11 14 -7z
m354 -36 c-6 -18 -15 -37 -19 -42 -5 -6 -9 -16 -9 -24 0 -22 -60 -144 -83
-169 -23 -26 -52 -30 -60 -9 -6 15 2 58 12 66 4 3 15 22 26 42 11 21 43 64 72
95 29 32 53 61 53 66 0 4 4 7 9 7 6 0 6 -13 -1 -32z m542 -55 c19 -30 42 -62
50 -72 43 -49 42 -53 -28 -94 -36 -21 -111 -61 -166 -89 -56 -28 -109 -54
-118 -59 -11 -6 -18 -5 -18 1 0 5 4 10 9 10 16 0 42 114 41 187 0 29 3 32 33
35 28 3 32 7 35 35 2 22 7 30 17 27 7 -3 16 3 20 15 3 12 13 21 21 21 8 0 14
8 14 18 0 10 5 23 11 29 17 17 38 -1 79 -64z m176 42 c16 -14 46 -28 66 -31
38 -7 38 -9 -4 -42 -15 -12 -19 -12 -30 0 -16 16 -70 98 -65 98 2 0 17 -11 33
-25z m-3289 -7 c-3 -8 -6 -5 -6 6 -1 11 2 17 5 13 3 -3 4 -12 1 -19z m2253
-40 c0 -20 -4 -40 -10 -43 -6 -4 -10 16 -10 52 0 41 3 54 10 43 5 -8 10 -32
10 -52z m958 -5 c34 -45 45 -81 13 -47 -20 22 -71 100 -71 110 0 7 17 -12 58
-63z m-2843 -20 c-3 -25 -7 -48 -9 -50 -18 -18 -105 64 -91 87 3 5 28 10 55
10 l49 0 -4 -47z m955 -72 c0 -15 -5 -42 -11 -60 -8 -24 -8 -35 1 -46 19 -22
7 -27 -43 -20 -46 7 -130 64 -96 65 9 0 24 9 34 20 10 11 23 20 29 20 7 0 19
8 28 18 46 47 58 48 58 3z m898 7 c-6 -18 -13 -27 -15 -21 -4 11 13 53 22 53
2 0 -1 -15 -7 -32z m537 15 c-4 -10 -11 -53 -15 -95 -7 -74 -23 -114 -41 -102
-20 12 30 214 53 214 6 0 7 -8 3 -17z m-600 -14 c11 -17 -1 -21 -15 -4 -8 9
-8 15 -2 15 6 0 14 -5 17 -11z m-295 -38 c0 -11 -4 -23 -10 -26 -24 -15 0 -85
29 -85 16 0 33 48 26 71 -4 11 -11 19 -17 19 -6 0 -8 3 -5 6 4 4 14 1 23 -6
13 -12 17 -11 25 1 6 9 9 -3 9 -38 0 -38 -4 -53 -14 -53 -7 0 -25 -11 -40 -25
-20 -18 -26 -20 -26 -8 0 10 -6 13 -16 9 -13 -5 -15 -1 -10 18 7 27 -18 57
-27 34 -3 -7 -6 -3 -6 10 -1 12 4 21 11 20 7 -2 14 8 16 22 5 37 10 50 22 50
5 0 10 -9 10 -19z m393 -44 c-7 -43 28 -117 73 -157 30 -26 43 -30 90 -30 60
0 104 18 128 52 l16 22 0 -28 c0 -17 11 -38 29 -56 l28 -29 -38 -26 c-21 -14
-45 -25 -54 -25 -8 0 -15 -4 -15 -10 0 -5 -9 -10 -19 -10 -11 0 -22 -4 -25 -9
-3 -5 -23 -12 -43 -16 -21 -4 -40 -10 -43 -14 -7 -9 -102 -41 -123 -41 -10 0
-21 10 -26 23 -10 24 -51 70 -96 105 -29 23 -30 27 -29 95 2 69 3 71 40 104
22 19 48 36 60 39 11 3 27 14 34 25 19 25 20 25 13 -14z m219 -77 c-12 -12
-22 -18 -22 -14 0 10 34 42 39 38 3 -2 -5 -13 -17 -24z m-1972 -100 c0 -13 -7
-20 -20 -20 -19 0 -19 1 -3 20 10 11 19 20 20 20 2 0 3 -9 3 -20z m123 -2 c9
0 17 -4 17 -9 0 -6 -22 -9 -50 -7 -33 2 -50 7 -50 16 0 10 8 12 33 6 17 -4 40
-7 50 -6z m294 6 c-3 -3 -12 -4 -19 -1 -8 3 -5 6 6 6 11 1 17 -2 13 -5z m413
-14 c0 -5 -2 -10 -4 -10 -3 0 -8 5 -11 10 -3 6 -1 10 4 10 6 0 11 -4 11 -10z
m-880 -35 c0 -9 -6 -12 -16 -8 -13 5 -13 7 -2 14 17 11 18 11 18 -6z m-30 -25
c0 -5 -7 -7 -15 -4 -8 4 -15 8 -15 10 0 2 7 4 15 4 8 0 15 -4 15 -10z m280
-55 c42 13 70 13 70 -1 0 -8 5 -14 10 -14 6 0 10 4 10 10 0 5 7 7 16 3 9 -3
20 0 25 8 7 11 12 12 29 2 11 -7 26 -13 35 -13 15 0 32 -43 26 -70 -8 -39 -73
-53 -91 -19 -9 16 -14 18 -25 9 -11 -9 -19 -7 -37 12 -30 31 -65 24 -87 -18
-14 -25 -20 -29 -32 -20 -21 16 -22 86 -2 108 11 13 19 15 24 7 4 -7 16 -8 29
-4z m-103 -87 c-3 -7 -5 -2 -5 12 0 14 2 19 5 13 2 -7 2 -19 0 -25z m640 -104
c-8 -9 -47 15 -47 29 0 7 5 18 12 25 9 9 15 5 26 -18 8 -17 12 -33 9 -36z
m1146 42 c6 -16 -13 -76 -25 -76 -8 0 -52 60 -47 64 12 10 46 25 55 26 7 0 14
-6 17 -14z m-1223 -20 c0 -3 -4 -8 -10 -11 -5 -3 -10 -1 -10 4 0 6 5 11 10 11
6 0 10 -2 10 -4z m-247 -19 c3 -9 -6 -11 -37 -8 -40 5 -40 5 -11 12 17 3 33 7
36 8 4 0 9 -5 12 -12z m127 -29 c0 -10 -49 -9 -74 1 -19 7 -19 8 2 13 12 4 22
2 22 -3 0 -5 7 -9 15 -9 8 0 15 8 15 18 0 14 2 15 10 2 5 -8 10 -18 10 -22z
m132 -18 c39 0 48 -3 48 -17 0 -13 -3 -14 -12 -5 -7 7 -35 12 -64 12 -56 0
-84 7 -84 20 0 5 15 4 32 -1 18 -5 54 -9 80 -9z m121 -10 c4 -16 0 -20 -19
-20 -36 0 -30 35 7 39 4 1 9 -8 12 -19z m1051 -105 c-15 -23 -63 -38 -49 -15
3 6 11 10 16 10 6 0 17 7 25 15 23 23 26 18 8 -10z m-94 -60 c0 -10 -10 -15
-29 -15 -18 0 -35 -8 -43 -19 -8 -10 -25 -21 -38 -23 -17 -2 -26 -10 -28 -25
-2 -13 -10 -23 -18 -23 -9 0 -22 -7 -30 -15 -9 -8 -20 -15 -25 -15 -5 0 -9 7
-9 15 0 8 5 15 10 15 6 0 10 8 10 18 0 16 40 42 67 42 7 0 13 5 13 10 0 6 6
10 13 10 6 1 30 9 52 20 49 24 55 24 55 5z m-299 -104 c-8 -5 -21 -7 -28 -4
-8 3 -24 1 -36 -4 -45 -21 -107 -31 -107 -18 0 7 19 17 43 22 54 14 147 16
128 4z m-341 -45 c0 -2 -7 -6 -15 -10 -8 -3 -15 -1 -15 4 0 6 7 10 15 10 8 0
15 -2 15 -4z m395 -6 c-3 -5 -11 -10 -16 -10 -6 0 -7 5 -4 10 3 6 11 10 16 10
6 0 7 -4 4 -10z"/>
<path d="M1267 3965 c6 -17 25 -15 31 3 2 7 -5 12 -17 12 -14 0 -19 -5 -14
-15z"/>
<path d="M1486 3928 c-2 -7 -14 -46 -26 -86 -13 -42 -19 -77 -14 -81 5 -5 32
-11 60 -15 62 -8 69 -1 78 76 4 32 12 60 17 63 15 10 10 45 -7 52 -9 3 -25 1
-35 -6 -12 -7 -19 -7 -19 -1 0 15 -50 12 -54 -2z m60 -55 c-10 -10 -19 5 -10
18 6 11 8 11 12 0 2 -7 1 -15 -2 -18z"/>
<path d="M1420 3670 c0 -11 5 -20 10 -20 6 0 10 -7 10 -17 0 -9 2 -14 5 -11 8
8 -6 68 -16 68 -5 0 -9 -9 -9 -20z"/>
</g>
</svg>
